<?xml version="1.0" encoding="UTF-8" standalone="no"?>
<!DOCTYPE svg PUBLIC "-//W3C//DTD SVG 1.1//EN"
 "http://www.w3.org/Graphics/SVG/1.1/DTD/svg11.dtd">
<!-- Generated by graphviz version 14.1.3 (20260303.0454)
 -->
<!-- Title: TSPFlow Pages: 1 -->
<svg width="1720pt" height="98pt"
 viewBox="0.00 0.00 1720.00 98.00" xmlns="http://www.w3.org/2000/svg" xmlns:xlink="http://www.w3.org/1999/xlink">
<g id="graph0" class="graph" transform="scale(1 1) rotate(0) translate(4 94)">
<title>TSPFlow</title>
<polygon fill="white" stroke="none" points="-4,4 -4,-94 1715.98,-94 1715.98,4 -4,4"/>
<!-- input -->
<g id="node1" class="node">
<title>input</title>
<path fill="#f8fafc" stroke="#334155" d="M114.25,-63C114.25,-63 12,-63 12,-63 6,-63 0,-57 0,-51 0,-51 0,-39 0,-39 0,-33 6,-27 12,-27 12,-27 114.25,-27 114.25,-27 120.25,-27 126.25,-33 126.25,-39 126.25,-39 126.25,-51 126.25,-51 126.25,-57 120.25,-63 114.25,-63"/>
<text xml:space="preserve" text-anchor="middle" x="63.12" y="-39.2" font-family="Helvetica,sans-Serif" font-size="14.00">CSV de distancias</text>
</g>
<!-- load -->
<g id="node2" class="node">
<title>load</title>
<path fill="#f8fafc" stroke="#334155" d="M277.5,-63C277.5,-63 175.25,-63 175.25,-63 169.25,-63 163.25,-57 163.25,-51 163.25,-51 163.25,-39 163.25,-39 163.25,-33 169.25,-27 175.25,-27 175.25,-27 277.5,-27 277.5,-27 283.5,-27 289.5,-33 289.5,-39 289.5,-39 289.5,-51 289.5,-51 289.5,-57 283.5,-63 277.5,-63"/>
<text xml:space="preserve" text-anchor="middle" x="226.38" y="-39.2" font-family="Helvetica,sans-Serif" font-size="14.00">Carga con pandas</text>
</g>
<!-- input&#45;&gt;load -->
<g id="edge1" class="edge">
<title>input&#45;&gt;load</title>
<path fill="none" stroke="#475569" d="M126.47,-45C134.69,-45 143.19,-45 151.58,-45"/>
<polygon fill="#475569" stroke="#475569" points="151.42,-48.5 161.42,-45 151.42,-41.5 151.42,-48.5"/>
</g>
<!-- index -->
<g id="node3" class="node">
<title>index</title>
<path fill="#f8fafc" stroke="#334155" d="M432.5,-63C432.5,-63 338.5,-63 338.5,-63 332.5,-63 326.5,-57 326.5,-51 326.5,-51 326.5,-39 326.5,-39 326.5,-33 332.5,-27 338.5,-27 338.5,-27 432.5,-27 432.5,-27 438.5,-27 444.5,-33 444.5,-39 444.5,-39 444.5,-51 444.5,-51 444.5,-57 438.5,-63 432.5,-63"/>
<text xml:space="preserve" text-anchor="middle" x="385.5" y="-39.2" font-family="Helvetica,sans-Serif" font-size="14.00">Índices de nodos</text>
</g>
<!-- load&#45;&gt;index -->
<g id="edge2" class="edge">
<title>load&#45;&gt;index</title>
<path fill="none" stroke="#475569" d="M289.93,-45C298.16,-45 306.65,-45 314.99,-45"/>
<polygon fill="#475569" stroke="#475569" points="314.73,-48.5 324.73,-45 314.73,-41.5 314.73,-48.5"/>
</g>
<!-- vars -->
<g id="node4" class="node">
<title>vars</title>
<path fill="#f8fafc" stroke="#334155" d="M616.75,-63C616.75,-63 493.5,-63 493.5,-63 487.5,-63 481.5,-57 481.5,-51 481.5,-51 481.5,-39 481.5,-39 481.5,-33 487.5,-27 493.5,-27 493.5,-27 616.75,-27 616.75,-27 622.75,-27 628.75,-33 628.75,-39 628.75,-39 628.75,-51 628.75,-51 628.75,-57 622.75,-63 616.75,-63"/>
<text xml:space="preserve" text-anchor="middle" x="555.12" y="-39.2" font-family="Helvetica,sans-Serif" font-size="14.00">Variables binarias x_ij</text>
</g>
<!-- index&#45;&gt;vars -->
<g id="edge3" class="edge">
<title>index&#45;&gt;vars</title>
<path fill="none" stroke="#475569" d="M444.66,-45C452.72,-45 461.13,-45 469.55,-45"/>
<polygon fill="#475569" stroke="#475569" points="469.5,-48.5 479.5,-45 469.5,-41.5 469.5,-48.5"/>
</g>
<!-- constraints -->
<g id="node5" class="node">
<title>constraints</title>
<path fill="#f8fafc" stroke="#334155" d="M825,-63C825,-63 677.75,-63 677.75,-63 671.75,-63 665.75,-57 665.75,-51 665.75,-51 665.75,-39 665.75,-39 665.75,-33 671.75,-27 677.75,-27 677.75,-27 825,-27 825,-27 831,-27 837,-33 837,-39 837,-39 837,-51 837,-51 837,-57 831,-63 825,-63"/>
<text xml:space="preserve" text-anchor="middle" x="751.37" y="-39.2" font-family="Helvetica,sans-Serif" font-size="14.00">Restricciones TSP + MTZ</text>
</g>
<!-- vars&#45;&gt;constraints -->
<g id="edge4" class="edge">
<title>vars&#45;&gt;constraints</title>
<path fill="none" stroke="#475569" d="M629.01,-45C637.15,-45 645.53,-45 653.91,-45"/>
<polygon fill="#475569" stroke="#475569" points="653.8,-48.5 663.8,-45 653.8,-41.5 653.8,-48.5"/>
</g>
<!-- objective -->
<g id="node6" class="node">
<title>objective</title>
<path fill="#f8fafc" stroke="#334155" d="M1031,-63C1031,-63 886,-63 886,-63 880,-63 874,-57 874,-51 874,-51 874,-39 874,-39 874,-33 880,-27 886,-27 886,-27 1031,-27 1031,-27 1037,-27 1043,-33 1043,-39 1043,-39 1043,-51 1043,-51 1043,-57 1037,-63 1031,-63"/>
<text xml:space="preserve" text-anchor="middle" x="958.5" y="-39.2" font-family="Helvetica,sans-Serif" font-size="14.00">Objetivo: minimizar costo</text>
</g>
<!-- constraints&#45;&gt;objective -->
<g id="edge5" class="edge">
<title>constraints&#45;&gt;objective</title>
<path fill="none" stroke="#475569" d="M837.29,-45C845.55,-45 853.96,-45 862.32,-45"/>
<polygon fill="#475569" stroke="#475569" points="862.13,-48.5 872.13,-45 862.13,-41.5 862.13,-48.5"/>
</g>
<!-- solve -->
<g id="node7" class="node">
<title>solve</title>
<path fill="#f8fafc" stroke="#334155" d="M1223.5,-63C1223.5,-63 1092,-63 1092,-63 1086,-63 1080,-57 1080,-51 1080,-51 1080,-39 1080,-39 1080,-33 1086,-27 1092,-27 1092,-27 1223.5,-27 1223.5,-27 1229.5,-27 1235.5,-33 1235.5,-39 1235.5,-39 1235.5,-51 1235.5,-51 1235.5,-57 1229.5,-63 1223.5,-63"/>
<text xml:space="preserve" text-anchor="middle" x="1157.75" y="-39.2" font-family="Helvetica,sans-Serif" font-size="14.00">Resolver con OR&#45;Tools</text>
</g>
<!-- objective&#45;&gt;solve -->
<g id="edge6" class="edge">
<title>objective&#45;&gt;solve</title>
<path fill="none" stroke="#475569" d="M1043.44,-45C1051.73,-45 1060.16,-45 1068.49,-45"/>
<polygon fill="#475569" stroke="#475569" points="1068.26,-48.5 1078.26,-45 1068.26,-41.5 1068.26,-48.5"/>
</g>
<!-- status -->
<g id="node8" class="node">
<title>status</title>
<path fill="#f8fafc" stroke="#334155" d="M1380.12,-61.21C1380.12,-61.21 1284.37,-46.79 1284.37,-46.79 1278.43,-45.89 1278.43,-44.11 1284.37,-43.21 1284.37,-43.21 1380.12,-28.79 1380.12,-28.79 1386.06,-27.89 1397.92,-27.89 1403.86,-28.79 1403.86,-28.79 1499.61,-43.21 1499.61,-43.21 1505.55,-44.11 1505.55,-45.89 1499.61,-46.79 1499.61,-46.79 1403.86,-61.21 1403.86,-61.21 1397.92,-62.11 1386.06,-62.11 1380.12,-61.21"/>
<text xml:space="preserve" text-anchor="middle" x="1391.99" y="-39.2" font-family="Helvetica,sans-Serif" font-size="14.00">¿Solución factible?</text>
</g>
<!-- solve&#45;&gt;status -->
<g id="edge7" class="edge">
<title>solve&#45;&gt;status</title>
<path fill="none" stroke="#475569" d="M1235.76,-45C1242.95,-45 1250.37,-45 1257.88,-45"/>
<polygon fill="#475569" stroke="#475569" points="1257.83,-48.5 1267.83,-45 1257.83,-41.5 1257.83,-48.5"/>
</g>
<!-- extract -->
<g id="node9" class="node">
<title>extract</title>
<path fill="#f8fafc" stroke="#334155" d="M1698.11,-90C1698.11,-90 1578.61,-90 1578.61,-90 1572.61,-90 1566.61,-84 1566.61,-78 1566.61,-78 1566.61,-66 1566.61,-66 1566.61,-60 1572.61,-54 1578.61,-54 1578.61,-54 1698.11,-54 1698.11,-54 1704.11,-54 1710.11,-60 1710.11,-66 1710.11,-66 1710.11,-78 1710.11,-78 1710.11,-84 1704.11,-90 1698.11,-90"/>
<text xml:space="preserve" text-anchor="middle" x="1638.36" y="-66.2" font-family="Helvetica,sans-Serif" font-size="14.00">Extraer arcos x_ij = 1</text>
</g>
<!-- status&#45;&gt;extract -->
<g id="edge8" class="edge">
<title>status&#45;&gt;extract</title>
<path fill="none" stroke="#475569" d="M1463.02,-52.74C1491.78,-55.92 1525.29,-59.62 1555.2,-62.92"/>
<polygon fill="#475569" stroke="#475569" points="1554.64,-66.38 1564.97,-64 1555.41,-59.42 1554.64,-66.38"/>
<text xml:space="preserve" text-anchor="middle" x="1538.11" y="-63.41" font-family="Helvetica,sans-Serif" font-size="14.00">Sí</text>
</g>
<!-- review -->
<g id="node10" class="node">
<title>review</title>
<path fill="#f8fafc" stroke="#334155" d="M1699.98,-36C1699.98,-36 1576.73,-36 1576.73,-36 1570.73,-36 1564.73,-30 1564.73,-24 1564.73,-24 1564.73,-12 1564.73,-12 1564.73,-6 1570.73,0 1576.73,0 1576.73,0 1699.98,0 1699.98,0 1705.98,0 1711.98,-6 1711.98,-12 1711.98,-12 1711.98,-24 1711.98,-24 1711.98,-30 1705.98,-36 1699.98,-36"/>
<text xml:space="preserve" text-anchor="middle" x="1638.36" y="-12.2" font-family="Helvetica,sans-Serif" font-size="14.00">Revisar datos/modelo</text>
</g>
<!-- status&#45;&gt;review -->
<g id="edge9" class="edge">
<title>status&#45;&gt;review</title>
<path fill="none" stroke="#475569" d="M1463.02,-37.26C1491.15,-34.15 1523.84,-30.54 1553.25,-27.29"/>
<polygon fill="#475569" stroke="#475569" points="1553.28,-30.81 1562.84,-26.23 1552.51,-23.85 1553.28,-30.81"/>
<text xml:space="preserve" text-anchor="middle" x="1538.11" y="-31.58" font-family="Helvetica,sans-Serif" font-size="14.00">No</text>
</g>
</g>
</svg>
